<svg width="25" height="24" viewBox="0 0 25 24" fill="none" xmlns="http://www.w3.org/2000/svg">
<g clip-path="url(#clip0_5_67)">
<path d="M6.9179 1.63394C6.85932 1.49369 6.84675 1.33862 6.88201 1.19085C6.91726 1.04307 6.99853 0.910156 7.11422 0.811054C7.22991 0.711951 7.3741 0.65173 7.52624 0.638982C7.67837 0.626233 7.83066 0.66161 7.96138 0.740063C9.71017 1.79733 10.3092 3.11411 9.71017 4.07526L9.63288 4.18099C9.42433 4.40585 9.14928 4.55889 8.84751 4.61795C8.54575 4.67702 8.23292 4.63906 7.95428 4.50956C7.67564 4.38006 7.44563 4.16574 7.29753 3.8976C7.14944 3.62946 7.09092 3.32141 7.13046 3.018C7.16751 2.54652 7.09478 2.0729 6.9179 1.63394ZM19.2754 1.79733C19.313 1.64819 19.3976 1.51493 19.5167 1.417C19.6359 1.31907 19.7834 1.26162 19.9378 1.25303C20.0921 1.24444 20.2451 1.28517 20.3745 1.36926C20.5039 1.45335 20.6029 1.5764 20.657 1.72044C21.3817 3.64275 21.0532 5.17098 20.0773 5.77651C19.8011 5.93292 19.4758 5.98021 19.1661 5.90898C18.8564 5.83775 18.585 5.65321 18.4058 5.39205C18.2151 5.10173 18.1233 4.75803 18.1442 4.41182C18.1651 4.0656 18.2975 3.73528 18.5218 3.46974L18.6667 3.24867C18.9406 2.79746 19.1457 2.30837 19.2754 1.79733ZM14.8116 8.65997C14.2296 8.84451 13.6766 9.10984 13.1691 9.44811C11.6978 10.5615 10.5234 12.0169 9.74882 13.6868L9.6522 13.8983C9.28285 13.6514 8.95649 13.3462 8.68602 12.9948C8.48221 12.7095 8.34973 12.38 8.29955 12.0336C7.94114 12.3433 7.65999 12.7315 7.47829 13.1678C7.14795 13.9068 6.97051 14.7043 6.95655 15.513C6.95655 16.2552 7.1035 16.9901 7.389 17.6758C7.67451 18.3614 8.09298 18.9845 8.62052 19.5093C9.14807 20.0341 9.77435 20.4504 10.4636 20.7344C11.1529 21.0184 11.8916 21.1646 12.6377 21.1646C13.3838 21.1646 14.1225 21.0184 14.8118 20.7344C15.5011 20.4504 16.1274 20.0341 16.6549 19.5093C17.1824 18.9845 17.6009 18.3614 17.8864 17.6758C18.1719 16.9901 18.3189 16.2552 18.3189 15.513C18.3643 14.943 18.286 14.3699 18.0893 13.8326C17.8926 13.2952 17.5821 12.8063 17.1788 12.3989C16.9353 12.7977 16.6324 13.1575 16.2802 13.4657C15.8798 13.7884 15.4338 14.0507 14.9565 14.2443L14.7343 14.35V14.1289C14.5749 12.7205 14.5749 11.2987 14.7343 9.89024C14.7194 9.47862 14.7453 9.06654 14.8116 8.65997ZM12.4638 0.557444C12.4949 0.430817 12.56 0.314965 12.6521 0.222218C12.7442 0.129472 12.8599 0.0633048 12.9868 0.0307598C13.1137 -0.00178516 13.247 0.000510735 13.3727 0.0374031C13.4984 0.0742954 13.6117 0.144403 13.7005 0.240263C15.4076 2.17547 16.7025 4.43482 17.5073 6.88183C17.8228 7.75837 18.0936 8.65017 18.3189 9.55384L18.3962 9.89024C18.8508 9.60127 19.2664 9.25566 19.6329 8.86181L19.8454 8.62152C19.925 8.5259 20.0281 8.45235 20.1447 8.408C20.2612 8.36365 20.3873 8.34999 20.5108 8.36836C20.6342 8.38673 20.7508 8.4365 20.8492 8.51285C20.9476 8.5892 21.0245 8.68953 21.0725 8.80414L21.1401 8.90987C22.4295 11.0378 22.8708 13.5689 22.3772 16.0045C21.8836 18.44 20.4909 20.6033 18.4735 22.0681L18.2416 22.2315C16.1011 23.7246 13.458 24.3246 10.8784 23.9029C8.29868 23.4811 5.9876 22.0712 4.44014 19.9751C2.89267 17.879 2.23188 15.2634 2.59929 12.6885C2.9667 10.1137 4.33311 7.78431 6.40583 6.19941C6.51536 6.11451 6.64712 6.0627 6.78541 6.05015C6.9237 6.0376 7.0627 6.06485 7.18587 6.12864C7.30904 6.19244 7.41119 6.2901 7.48016 6.41C7.54913 6.52989 7.58202 6.66698 7.57491 6.80494C7.56217 7.19527 7.63118 7.58396 7.77755 7.94634C7.92392 8.30871 8.14446 8.63683 8.42515 8.90987L8.55075 8.78492C9.61582 7.59155 10.451 6.21337 11.0145 4.71924L11.1594 4.36361C11.4976 3.52741 11.7971 2.67198 12.0483 1.83578C12.1643 1.45132 12.2609 1.11491 12.3285 0.874624L12.4638 0.557444Z" fill="#D1161E"/>
</g>
<defs>
<clipPath id="clip0_5_67">
<rect width="24" height="24" fill="white" transform="translate(0.5)"/>
</clipPath>
</defs>
</svg>
