<svg width="50" height="35" viewBox="0 0 50 35" fill="none" xmlns="http://www.w3.org/2000/svg">
<path d="M49.137 27.988L42.637 21.488C42.5478 21.3988 42.4391 21.3316 42.3195 21.2917L38 19.8519V15.899L41.2959 12.6032L46.0064 16.589C46.1619 16.7207 46.3613 16.7891 46.565 16.7806C46.7687 16.7721 46.9617 16.6874 47.1058 16.5433L49.137 14.512C49.267 14.3821 49.349 14.212 49.3698 14.0294C49.3906 13.8469 49.3489 13.6627 49.2515 13.5069L45.189 7.0069C45.1098 6.88012 44.9971 6.77766 44.8634 6.71079L41.6134 5.08579C41.4744 5.01629 41.3184 4.9881 41.1639 5.00457C41.0094 5.02104 40.8628 5.08147 40.7416 5.17871C40.6204 5.27594 40.5296 5.40589 40.48 5.55316C40.4304 5.70043 40.4241 5.85883 40.4618 6.00958L40.6156 6.625H40.4375C40.3386 6.625 40.2406 6.64304 40.1483 6.67821L36.5989 8.03014C36.3959 7.60581 36.053 7.26428 35.6279 7.06295C35.2027 6.86162 34.7212 6.81274 34.2643 6.92453L32.8409 7.28038C33.3329 7.10851 33.7682 6.80504 34.0997 6.40298C34.4312 6.00093 34.6461 5.51567 34.721 5H34.75C34.9655 5 35.1721 4.9144 35.3245 4.76202C35.4769 4.60965 35.5625 4.40299 35.5625 4.1875C35.5625 3.97201 35.4769 3.76535 35.3245 3.61298C35.1721 3.4606 34.9655 3.375 34.75 3.375H34.7205C34.6189 2.67 34.2564 2.02883 33.7046 1.57834C33.1529 1.12786 32.4522 0.900879 31.7411 0.942319C31.03 0.983759 30.3604 1.2906 29.8647 1.80212C29.3691 2.31365 29.0835 2.9926 29.0644 3.70462C28.5971 3.54303 28.099 3.4903 27.6082 3.55045L24.9998 3.87652C23.161 4.10239 21.4843 5.04073 20.3301 6.48982C20.0571 6.83109 19.8657 7.23016 19.7703 7.65664C19.6749 8.08312 19.6782 8.52574 19.7798 8.95077C19.8815 9.37579 20.0788 9.77201 20.3568 10.1092C20.6348 10.4464 20.9861 10.7157 21.3839 10.8965L24.1784 12.1668L24.0406 12.4884C22.9196 12.5664 21.7961 12.3765 20.763 11.9344C18.8052 11.0952 16.6075 11.0036 14.5867 11.6768L12.6806 12.3125H11.6222C10.3785 12.3113 9.16595 12.7021 8.15698 13.4294C7.14802 14.1566 6.39393 15.1834 6.00185 16.3637C5.74881 17.1222 5.28941 17.7952 4.6752 18.3071L0.917384 21.4383C0.782353 21.5507 0.687387 21.7038 0.646725 21.8747C0.606064 22.0456 0.621898 22.2251 0.691854 22.3862C0.76181 22.5473 0.882117 22.6815 1.03474 22.7685C1.18736 22.8555 1.36406 22.8906 1.53836 22.8687L5.71204 22.3467C6.56084 22.2407 7.36571 21.9091 8.04288 21.3865C8.72004 20.8639 9.24475 20.1693 9.56239 19.3751C9.74497 18.9214 10.0298 18.5159 10.3948 18.1904C10.3829 18.3503 10.375 18.5111 10.375 18.6731V18.9519C10.3743 19.6442 10.4863 20.332 10.7068 20.9882L6.76159 22.9608C6.66475 23.0092 6.57856 23.0765 6.50808 23.1587L1.63308 28.8462C1.49987 29.0016 1.43024 29.2016 1.43809 29.4062C1.44594 29.6107 1.5307 29.8048 1.67543 29.9495L3.30043 31.5745C3.4438 31.7179 3.63559 31.8025 3.83813 31.8117C4.04068 31.8209 4.23934 31.754 4.39511 31.6242L9.1977 27.6221L10.0862 27.1778L12.0342 33.671C12.0844 33.8384 12.1873 33.9851 12.3275 34.0894C12.4677 34.1937 12.6378 34.25 12.8125 34.25H14.4375C14.5539 34.25 14.669 34.225 14.7749 34.1767C14.8808 34.1283 14.975 34.0578 15.0513 33.9699C15.1276 33.8819 15.1841 33.7786 15.217 33.667C15.2498 33.5553 15.2583 33.4379 15.2419 33.3226L14.4868 28.0373L17.7013 24.8228C18.6517 23.874 19.318 22.6784 19.6248 21.371C20.1524 21.5984 20.647 21.8955 21.0956 22.2545C21.9977 22.9764 23.0441 23.4963 24.1643 23.7793C25.2844 24.0623 26.4522 24.1017 27.5889 23.8949L31.5337 23.1777C31.8716 23.5243 32.244 23.8357 32.6449 24.1071L34.8228 28.8987C34.8529 28.9649 34.8918 29.0268 34.9383 29.0827L39.0008 33.9577C39.0771 34.0492 39.1725 34.1228 39.2804 34.1733C39.3882 34.2238 39.5059 34.25 39.625 34.25H41.25C41.3859 34.25 41.5197 34.2159 41.6391 34.1508C41.7584 34.0857 41.8595 33.9917 41.9331 33.8774C42.0067 33.7631 42.0505 33.6321 42.0604 33.4966C42.0702 33.361 42.0459 33.2251 41.9897 33.1013L38.6792 25.8186L40.0817 26.0736L44.7924 29.9992C44.8906 30.081 45.0067 30.1385 45.1313 30.167C45.2559 30.1956 45.3855 30.1943 45.5096 30.1633L48.7596 29.3508C48.899 29.3159 49.0268 29.2446 49.1297 29.1442C49.2327 29.0439 49.3071 28.918 49.3455 28.7794C49.3839 28.6408 49.3848 28.4946 49.3482 28.3555C49.3116 28.2165 49.2387 28.0897 49.137 27.988V27.988ZM44.9773 9.73425L46.2809 11.82L44.7249 13.376L43.4042 12.2584L44.3553 10.3563L44.9773 9.73425ZM46.4853 14.8656L45.9698 14.4293L47.1648 13.2343L47.5309 13.82L46.4853 14.8656ZM32.7678 5.4553C32.5714 5.65199 32.3136 5.77555 32.0372 5.80544C31.7609 5.83533 31.4826 5.76975 31.2487 5.6196L30.7634 5.01295C30.7617 5.00861 30.7598 5.00435 30.7583 5H33.0543C32.9941 5.17128 32.8962 5.32687 32.7678 5.4553ZM31.9062 2.5625C32.158 2.56293 32.4034 2.64126 32.6089 2.78673C32.8144 2.9322 32.9698 3.13769 33.0539 3.375H30.7586C30.8427 3.13769 30.9981 2.9322 31.2036 2.78673C31.409 2.64126 31.6545 2.56293 31.9062 2.5625ZM25.2013 5.48892L27.8097 5.16291C28.0854 5.12955 28.365 5.16687 28.6222 5.27137C28.8795 5.37586 29.1059 5.5441 29.2802 5.76023L31.678 8.75757C31.7753 8.87898 31.9053 8.96995 32.0527 9.0197C32.2001 9.06945 32.3586 9.07589 32.5096 9.03825L34.6584 8.50103C34.7594 8.4762 34.866 8.49019 34.9572 8.54022C35.0483 8.59026 35.1173 8.67269 35.1506 8.7712C35.1695 8.82784 35.1758 8.8879 35.1693 8.94725C35.1627 9.00659 35.1434 9.0638 35.1126 9.11495C35.0818 9.1661 35.0403 9.20996 34.9909 9.24353C34.9415 9.27709 34.8854 9.29955 34.8266 9.30937L31.734 9.82482L27.1451 6.0008L26.1049 7.2492L26.3308 7.4375H24.0094L23.6318 5.92711C24.1303 5.70389 24.6593 5.5562 25.2013 5.48892ZM27.7741 17.1875L26.8853 16.2988L28.25 14.4792V17.1875H27.7741ZM29.3457 10.7937C29.235 10.4736 29.059 10.1802 28.8287 9.93189C28.5985 9.68363 28.319 9.48605 28.0082 9.35172L27.3333 9.0625H28.2808L30.0405 10.5289L29.3457 10.7937ZM21.3602 8.57279C21.3155 8.3884 21.3138 8.1962 21.3552 8.01104C21.3966 7.82589 21.48 7.65273 21.599 7.50495C21.7801 7.27851 21.9786 7.06661 22.1927 6.87122L22.5868 8.44708C22.6172 8.56859 22.6752 8.68144 22.7564 8.7768C22.8377 8.87216 22.9398 8.94745 23.0549 8.99679L27.3681 10.8454C27.5547 10.9265 27.7043 11.0743 27.7877 11.26C27.871 11.4456 27.8822 11.6556 27.8188 11.849L27.7646 12.0119L22.0564 9.41722C21.8834 9.33924 21.7306 9.22253 21.6099 9.07611C21.4892 8.92969 21.4038 8.75748 21.3602 8.57279ZM26.9934 13.4463L25.1624 15.8875C25.0451 16.044 24.9882 16.2375 25.002 16.4326C25.0159 16.6277 25.0996 16.8112 25.2379 16.9495L25.4759 17.1875H23.7947L25.6582 12.8394L26.9934 13.4463ZM22.0267 17.1875H20.9375V13.7294C21.7152 13.9737 22.5233 14.1076 23.3383 14.1271L22.0267 17.1875ZM8.38659 26.2108C8.33058 26.2388 8.27799 26.2732 8.22988 26.3133L3.92488 29.9008L3.35657 29.3325L7.63508 24.3409L11.4205 22.4482C11.5085 22.5813 11.6011 22.7119 11.6996 22.8389L9.80043 24.738C9.69671 24.8417 9.623 24.9716 9.58714 25.1139C9.55127 25.2561 9.55458 25.4055 9.59671 25.546L9.61231 25.5979L8.38659 26.2108ZM17.6015 17.2074C18.1273 18.259 18.3089 19.4494 18.1206 20.61C17.9322 21.7705 17.3835 22.8424 16.5522 23.6738L13.0504 27.1755C12.9613 27.2647 12.8941 27.3734 12.8542 27.4931C12.8143 27.6127 12.8028 27.74 12.8206 27.8649L13.5007 32.625H13.417L11.2927 25.5439L13.3871 23.4495C13.4625 23.3741 13.5223 23.2845 13.5632 23.1859C13.604 23.0873 13.625 22.9817 13.625 22.875C13.625 22.7683 13.604 22.6626 13.5631 22.564C13.5223 22.4654 13.4624 22.3759 13.387 22.3004C12.9458 21.8617 12.5961 21.3399 12.358 20.7651C12.12 20.1903 11.9983 19.574 12 18.9519V18.6731C11.9983 18.051 12.12 17.4347 12.358 16.8599C12.5961 16.2851 12.9458 15.7633 13.387 15.3246L12.238 14.1754C11.7026 14.7099 11.2667 15.3356 10.9511 16.0232C10.2982 16.2448 9.70114 16.6053 9.20094 17.0797C8.70074 17.5542 8.30929 18.1314 8.05354 18.7716C7.84379 19.2962 7.49729 19.7549 7.05009 20.1001C6.6029 20.4452 6.07136 20.6642 5.51081 20.7343L4.08714 20.9123L5.71552 19.5555C6.56187 18.8501 7.19486 17.9228 7.54344 16.8776C7.82795 16.021 8.3752 15.2758 9.10742 14.748C9.83964 14.2202 10.7196 13.9366 11.6222 13.9375H12.8125C12.8999 13.9375 12.9867 13.9234 13.0696 13.8957L15.1007 13.2184C16.4638 12.7637 17.9333 12.7361 19.3125 13.1393V17.0604C19.2352 16.8638 19.1493 16.6706 19.0549 16.4807L18.4142 15.1992L16.9608 15.9259L17.6015 17.2074ZM27.2983 22.2961C26.3902 22.4614 25.4572 22.4299 24.5623 22.2038C23.6674 21.9778 22.8314 21.5623 22.1107 20.9856C21.4216 20.4339 20.6461 19.9998 19.8156 19.7005C19.8148 19.3721 19.7917 19.0441 19.7467 18.7187C19.8632 18.7804 19.9931 18.8126 20.125 18.8125H29.0625C29.1875 18.8124 29.3107 18.7834 29.4225 18.7276L29.7264 19.9432C29.8826 20.5668 30.1231 21.1661 30.4411 21.7247L27.2983 22.2961ZM39.9673 32.5791L36.2569 28.1266L34.8868 25.1122C35.04 25.1508 35.1949 25.1851 35.3518 25.2137L36.7334 25.4648L39.9673 32.5791ZM45.5157 28.4867L40.9576 24.6884C40.8499 24.5986 40.7208 24.5382 40.5828 24.5131L35.6424 23.6149C34.6052 23.425 33.6446 22.9407 32.8751 22.2198C32.1056 21.4989 31.5598 20.5718 31.3028 19.5491L30.6632 16.9905L29.875 17.1875V12.331L32.4351 11.3554L35.0938 10.9122C35.4194 10.8582 35.7271 10.7258 35.9902 10.5263C36.2532 10.3268 36.4638 10.0663 36.6037 9.76724L40.587 8.25H41.0219L41.2743 9.25958L42.8507 8.86543L42.4667 7.32924L43.9322 8.062L44.0934 8.32L43.1129 9.30048C43.0512 9.36226 42.9998 9.43355 42.9608 9.51164L42.1275 11.1782L41.7749 10.8798C41.6193 10.7481 41.4199 10.6798 41.2162 10.6882C41.0126 10.6967 40.8196 10.7814 40.6754 10.9255L36.6129 14.988C36.4606 15.1404 36.375 15.347 36.375 15.5625V15.6303C35.796 14.9634 35.0912 14.4173 34.3009 14.0233L33.5741 15.4767C34.4177 15.895 35.1273 16.5412 35.6224 17.3422C36.1175 18.1433 36.3782 19.067 36.375 20.0086V20.4375C36.375 20.608 36.4286 20.7742 36.5283 20.9126C36.628 21.0509 36.7687 21.1544 36.9305 21.2083L41.6236 22.7727L46.9732 28.1223L45.5157 28.4867Z" fill="white"/>
</svg>
